<svg xmlns="http://www.w3.org/2000/svg" width="840" height="460" viewBox="0 0 840 460">
<rect width="100%" height="100%" fill="#fff"/>
<text x="420.0" y="32" text-anchor="middle" font-family="Arial" font-size="22" font-weight="700">Top openFDA FAERS reaction terms</text>
<text x="92" y="42" font-family="Arial" font-size="12" fill="#555">Public openFDA drug/event API</text>
<line x1="92" y1="58" x2="92" y2="374" stroke="#333"/>
<line x1="92" y1="374" x2="810" y2="374" stroke="#333"/>
<text x="420.0" y="452" text-anchor="middle" font-family="Arial" font-size="14">MedDRA preferred term</text>
<text x="20" y="230.0" text-anchor="middle" font-family="Arial" font-size="14" transform="rotate(-90 20,230.0)">FAERS report count</text>
<rect x="100.5" y="58.0" width="30.2" height="316.0" fill="#2868a8"/><text x="115.6" y="52.0" font-family="Arial" font-size="11" text-anchor="middle">9.7e+04</text><text x="115.6" y="415" font-family="Arial" font-size="11" text-anchor="middle" transform="rotate(35 115.6,415)">drug ineffective</text><rect x="147.7" y="59.5" width="30.2" height="314.5" fill="#2868a8"/><text x="162.8" y="53.5" font-family="Arial" font-size="11" text-anchor="middle">9.66e+04</text><text x="162.8" y="415" font-family="Arial" font-size="11" text-anchor="middle" transform="rotate(35 162.8,415)">nausea</text><rect x="194.9" y="63.6" width="30.2" height="310.4" fill="#2868a8"/><text x="210.0" y="57.6" font-family="Arial" font-size="11" text-anchor="middle">9.53e+04</text><text x="210.0" y="415" font-family="Arial" font-size="11" text-anchor="middle" transform="rotate(35 210.0,415)">fatigue</text><rect x="242.1" y="74.0" width="30.2" height="300.0" fill="#2868a8"/><text x="257.2" y="68.0" font-family="Arial" font-size="11" text-anchor="middle">9.21e+04</text><text x="257.2" y="415" font-family="Arial" font-size="11" text-anchor="middle" transform="rotate(35 257.2,415)">pain</text><rect x="289.3" y="98.1" width="30.2" height="275.9" fill="#2868a8"/><text x="304.4" y="92.1" font-family="Arial" font-size="11" text-anchor="middle">8.47e+04</text><text x="304.4" y="415" font-family="Arial" font-size="11" text-anchor="middle" transform="rotate(35 304.4,415)">diarrhoea</text><rect x="336.5" y="129.0" width="30.2" height="245.0" fill="#2868a8"/><text x="351.6" y="123.0" font-family="Arial" font-size="11" text-anchor="middle">7.52e+04</text><text x="351.6" y="415" font-family="Arial" font-size="11" text-anchor="middle" transform="rotate(35 351.6,415)">off label use</text><rect x="383.7" y="138.1" width="30.2" height="235.9" fill="#2868a8"/><text x="398.8" y="132.1" font-family="Arial" font-size="11" text-anchor="middle">7.24e+04</text><text x="398.8" y="415" font-family="Arial" font-size="11" text-anchor="middle" transform="rotate(35 398.8,415)">dyspnoea</text><rect x="430.9" y="141.6" width="30.2" height="232.4" fill="#2868a8"/><text x="446.0" y="135.6" font-family="Arial" font-size="11" text-anchor="middle">7.13e+04</text><text x="446.0" y="415" font-family="Arial" font-size="11" text-anchor="middle" transform="rotate(35 446.0,415)">headache</text><rect x="478.1" y="168.4" width="30.2" height="205.6" fill="#2868a8"/><text x="493.2" y="162.4" font-family="Arial" font-size="11" text-anchor="middle">6.31e+04</text><text x="493.2" y="415" font-family="Arial" font-size="11" text-anchor="middle" transform="rotate(35 493.2,415)">vomiting</text><rect x="525.3" y="186.5" width="30.2" height="187.5" fill="#2868a8"/><text x="540.4" y="180.5" font-family="Arial" font-size="11" text-anchor="middle">5.76e+04</text><text x="540.4" y="415" font-family="Arial" font-size="11" text-anchor="middle" transform="rotate(35 540.4,415)">dizziness</text><rect x="572.5" y="194.9" width="30.2" height="179.1" fill="#2868a8"/><text x="587.6" y="188.9" font-family="Arial" font-size="11" text-anchor="middle">5.5e+04</text><text x="587.6" y="415" font-family="Arial" font-size="11" text-anchor="middle" transform="rotate(35 587.6,415)">arthralgia</text><rect x="619.7" y="198.9" width="30.2" height="175.1" fill="#2868a8"/><text x="634.8" y="192.9" font-family="Arial" font-size="11" text-anchor="middle">5.37e+04</text><text x="634.8" y="415" font-family="Arial" font-size="11" text-anchor="middle" transform="rotate(35 634.8,415)">death</text><rect x="666.9" y="207.4" width="30.2" height="166.6" fill="#2868a8"/><text x="682.0" y="201.4" font-family="Arial" font-size="11" text-anchor="middle">5.12e+04</text><text x="682.0" y="415" font-family="Arial" font-size="11" text-anchor="middle" transform="rotate(35 682.0,415)">drug dependence</text><rect x="714.1" y="228.4" width="30.2" height="145.6" fill="#2868a8"/><text x="729.2" y="222.4" font-family="Arial" font-size="11" text-anchor="middle">4.47e+04</text><text x="729.2" y="415" font-family="Arial" font-size="11" text-anchor="middle" transform="rotate(35 729.2,415)">overdose</text><rect x="761.3" y="253.5" width="30.2" height="120.5" fill="#2868a8"/><text x="776.4" y="247.5" font-family="Arial" font-size="11" text-anchor="middle">3.7e+04</text><text x="776.4" y="415" font-family="Arial" font-size="11" text-anchor="middle" transform="rotate(35 776.4,415)">dependence</text>
</svg>