<svg xmlns="http://www.w3.org/2000/svg" width="760" height="430" viewBox="0 0 760 430">
    <rect width="100%" height="100%" fill="#ffffff"/>
    <text x="380.0" y="28" text-anchor="middle" font-family="Arial" font-size="22" font-weight="700">Demo FAERS adverse event counts</text>
    <line x1="80" y1="55" x2="80" y2="360" stroke="#333"/>
    <line x1="80" y1="360" x2="740" y2="360" stroke="#333"/>
    <rect x="92.2" y="55.0" width="56.9" height="305.0" fill="#2c7fb8"/><text x="120.6" y="395" font-size="12" text-anchor="middle" transform="rotate(35 120.6,395)">nausea</text><rect x="173.4" y="190.7" width="56.9" height="169.3" fill="#2c7fb8"/><text x="201.9" y="395" font-size="12" text-anchor="middle" transform="rotate(35 201.9,395)">headache</text><rect x="254.7" y="195.0" width="56.9" height="165.0" fill="#2c7fb8"/><text x="283.1" y="395" font-size="12" text-anchor="middle" transform="rotate(35 283.1,395)">fatigue</text><rect x="335.9" y="202.6" width="56.9" height="157.4" fill="#2c7fb8"/><text x="364.4" y="395" font-size="12" text-anchor="middle" transform="rotate(35 364.4,395)">rash</text><rect x="417.2" y="210.2" width="56.9" height="149.8" fill="#2c7fb8"/><text x="445.6" y="395" font-size="12" text-anchor="middle" transform="rotate(35 445.6,395)">myalgia</text><rect x="498.4" y="220.0" width="56.9" height="140.0" fill="#2c7fb8"/><text x="526.9" y="395" font-size="12" text-anchor="middle" transform="rotate(35 526.9,395)">liver injury</text><rect x="579.7" y="230.8" width="56.9" height="129.2" fill="#2c7fb8"/><text x="608.1" y="395" font-size="12" text-anchor="middle" transform="rotate(35 608.1,395)">infection</text><rect x="660.9" y="235.2" width="56.9" height="124.8" fill="#2c7fb8"/><text x="689.4" y="395" font-size="12" text-anchor="middle" transform="rotate(35 689.4,395)">bleeding</text>
    </svg>